<?xml version="1.0" encoding="utf-8"?>
<!-- Generator: Adobe Illustrator 26.5.2, SVG Export Plug-In . SVG Version: 6.00 Build 0)  -->
<svg version="1.1" id="Layer_1" xmlns="http://www.w3.org/2000/svg" xmlns:xlink="http://www.w3.org/1999/xlink" x="0px" y="0px"
	 viewBox="0 0 288 288" style="enable-background:new 0 0 288 288;" xml:space="preserve">
<style type="text/css">
	.st0{fill:#FFFFFF;}
</style>
<g>
	<path d="M247.01,103.92h-75.19c1.16-2.13,2.31-4.26,3.44-6.39c1.56-2.94,3.2-5.84,4.85-8.73c1.53-2.68,2.98-5.42,4.91-7.86
		c0.79-1,1.78-1.65,3-2.03c1.54-0.48,3.15-0.63,4.69-1.12c2.2-0.7,4.07-1.87,5.54-3.65c0.85-1.03,1.34-2.28,2-3.42
		c1.31-2.26,2.65-4.51,3.92-6.8c1.77-3.19,3.48-6.4,5.21-9.61c2.21-4.11,4.46-8.21,6.61-12.36c0.62-1.19,1.29-2.4,1.45-3.81
		c0.06-0.51-0.05-0.88-0.39-1.14c-0.31-0.23-0.72-0.1-1.06,0.09c-0.43,0.24-0.81,0.55-1.07,0.98c-1.08,1.84-2.18,3.66-3.22,5.52
		c-1.75,3.16-3.45,6.35-5.18,9.53c-2.19,4-4.39,8-6.59,11.99c-0.59,1.07-1.23,2.11-2.2,2.87c-0.48,0.37-1.07,0.52-1.63,0.32
		c-0.41-0.15-0.69-0.56-0.66-1.03c0.02-0.36,0.11-0.74,0.26-1.07c1.82-3.85,3.75-7.65,5.76-11.41c2.47-4.63,4.98-9.24,7.48-13.86
		c1.07-1.97,2.16-3.92,3.25-5.88c0.33-0.59,0.32-1.16-0.05-1.7c-0.41-0.6-1.57-0.54-2.08,0.41c-1.51,2.78-3.08,5.52-4.63,8.27
		c-1.26,2.25-2.51,4.51-3.78,6.77c-1.2,2.13-2.4,4.26-3.63,6.37c-1.33,2.29-2.65,4.58-4.04,6.84c-0.67,1.1-1.24,2.28-2.48,2.95
		c-1.07,0.58-2,0.18-2.21-1.01c-0.18-1.02,0.36-1.84,0.76-2.67c2.03-4.15,4.38-8.13,6.58-12.18c2.62-4.83,5.56-9.46,8.18-14.29
		c0.64-1.17,1.5-2.24,1.72-3.63c0.08-0.49,0.17-0.94-0.29-1.25c-0.46-0.31-0.91-0.12-1.37,0.1c-0.29,0.14-0.43,0.38-0.61,0.6
		c-1.08,1.3-1.81,2.83-2.73,4.24c-1.17,1.77-2.19,3.64-3.2,5.52c-0.82,1.52-1.79,2.96-2.67,4.44c-1.24,2.11-2.46,4.23-3.7,6.34
		c-1.18,2.01-2.36,4.02-3.57,6.01c-0.83,1.36-1.64,2.75-2.67,3.98c-0.45,0.53-1.61,0.83-2.12,0.55c-0.73-0.41-0.69-1.06-0.53-1.74
		c0.06-0.25,0.08-0.52,0.2-0.74c0.7-1.35,1.4-2.7,2.14-4.02c1.14-2,2.31-3.99,3.48-5.97c1.1-1.86,2.21-3.71,3.32-5.57
		c1.05-1.76,2.1-3.51,3.15-5.27c1.28-2.15,2.57-4.3,3.81-6.47c0.64-1.12,1.3-2.22,1.72-3.45c0.13-0.4,0.14-0.83-0.22-1.11
		c-0.34-0.27-0.7-0.25-1.11,0.01c-0.2,0.13-0.38,0.25-0.51,0.44c-0.91,1.32-1.93,2.57-2.69,3.97c-0.92,1.69-2.11,3.18-3.13,4.8
		c-1.03,1.65-2.09,3.28-3.21,4.88c-1.48,2.11-2.81,4.32-4.22,6.47c-1.18,1.79-2.42,3.55-3.6,5.35c-1.73,2.63-3.47,5.27-5.15,7.94
		c-1.08,1.71-1.53,3.63-1.4,5.64c0.14,2.18,1.33,4.06,1.92,6.12c0.45,1.54,0.69,3.09,0.34,4.71c-0.3,1.34-0.91,2.52-1.62,3.67
		c-1.23,1.99-2.46,3.98-3.72,5.95c-0.94,1.46-1.84,2.95-2.84,4.38c-1.11,1.58-2.1,3.26-3.16,4.88c-1.01,1.56-2.06,3.09-3.07,4.65
		c-0.59,0.9-1.17,1.8-1.75,2.7h-26.92c-5.79-12.22-11.32-22.84-17.21-29.75c-2.76,1.88-5.31,4.04-7.6,6.48
		c-1.16,1.24-3.19-0.56-2.03-1.8c2.35-2.5,4.97-4.74,7.8-6.7c-4.98-5.12-10.24-7.52-16.15-5.99c-0.22,0.14-0.42,0.29-0.63,0.44
		c-1.46-9.69-4.26-23.76-8.4-25.35c-1.57-0.01-0.88,5.32-0.16,8.01c-6.95-8.44-7.31-23.85-12.62-26.95
		c-5.52-3.22-3.27,16.71-0.05,18.82c-5.41-4.36-17.56-9.61-22.84-7.63c-4.86,1.82,26.89,16.95,28.59,17.76
		c-1.1-0.52-14.18-6.62-15.17-2.9c14.14,7.21,22.7,15.51,27.33,21.08c-7.77,8.33-1.32,18.77,11.1,32.55
		c1.91-2.57,4.73-4.48,7.93-5.19c0.71-0.16,1.46,0.13,1.72,0.86c0.22,0.64-0.13,1.5-0.84,1.66c-2.88,0.64-5.29,2.31-6.86,4.62H40.99
		c-3.11,0-5.63,2.52-5.63,5.63v96.87c0,3.11,2.52,5.63,5.63,5.63h206.02c3.11,0,5.63-2.52,5.63-5.63v-96.87
		C252.64,106.44,250.12,103.92,247.01,103.92z"/>
	<g>
		<path class="st0" d="M68.57,154.91v-32.9h23.55v3.2H72.19v11.75h13.07v3.15H72.19v14.81H68.57z"/>
		<path class="st0" d="M98.93,154.91l13.63-32.9h4.37l13.54,32.9h-3.95l-4.14-10.34h-15.51l-4.18,10.34H98.93z M108.14,141.47h12.97
			l-6.49-16.12L108.14,141.47z"/>
		<path class="st0" d="M145.41,154.91v-32.9h14.1c2.16,0,4.04,0.39,5.64,1.17c1.6,0.78,2.84,1.88,3.74,3.29
			c0.89,1.41,1.34,3.07,1.34,4.98c0,2.16-0.63,4.02-1.9,5.57c-1.27,1.55-2.97,2.64-5.1,3.27l7.38,14.62h-3.99l-7.05-14.15h-10.53
			v14.15H145.41z M149.03,137.71h10.25c2.22,0,4-0.56,5.33-1.69s2-2.65,2-4.56c0-1.88-0.67-3.38-2-4.51s-3.11-1.69-5.33-1.69h-10.25
			V137.71z"/>
		<path class="st0" d="M186.86,154.91v-32.9h5.08l11.23,23.36l11.19-23.36h5.08v32.9H216v-28.76l-12.88,26.41l-12.88-26.37v28.72
			H186.86z"/>
		<path class="st0" d="M74.59,174.82l-2.99,9.9c-0.41,1.3-0.62,2.28-0.65,2.95c0,0.22,0.05,0.41,0.16,0.58
			c0.11,0.17,0.29,0.25,0.56,0.25c0.43,0,0.89-0.16,1.37-0.49c0.48-0.32,0.94-0.71,1.39-1.15c0.44-0.44,0.84-0.9,1.19-1.37
			c0.35-0.47,0.61-0.83,0.77-1.1l1.04,0.61c-0.41,0.82-0.92,1.6-1.55,2.36s-1.28,1.42-1.98,2c-0.7,0.58-1.4,1.04-2.11,1.39
			c-0.71,0.35-1.35,0.52-1.93,0.52c-0.84,0-1.45-0.18-1.82-0.54c-0.37-0.36-0.56-0.96-0.56-1.8c0-0.48,0.08-1.13,0.25-1.94
			c0.17-0.82,0.46-1.93,0.86-3.35l2.66-8.82h-3.1l0.47-1.66h3.13l1.87-6.19h3.31l-1.87,6.19h3.92l-0.5,1.66H74.59z"/>
		<path class="st0" d="M86.9,191.27c-0.82,0-1.58-0.16-2.29-0.49s-1.33-0.8-1.85-1.42s-0.95-1.39-1.26-2.29
			c-0.31-0.9-0.47-1.91-0.47-3.04c0-1.56,0.29-3.1,0.88-4.61c0.59-1.51,1.36-2.86,2.32-4.03c0.96-1.18,2.06-2.12,3.29-2.84
			c1.24-0.72,2.51-1.08,3.83-1.08c0.86,0,1.66,0.16,2.39,0.49c0.73,0.32,1.36,0.79,1.87,1.4c0.52,0.61,0.92,1.34,1.22,2.2
			c0.3,0.85,0.45,1.79,0.45,2.83c0,1.51-0.3,3.04-0.9,4.57c-0.6,1.54-1.39,2.92-2.36,4.14s-2.08,2.23-3.33,3.01
			C89.47,190.88,88.2,191.27,86.9,191.27z M87.12,189.47c0.82,0,1.63-0.42,2.43-1.26c0.8-0.84,1.52-1.9,2.16-3.19
			c0.64-1.28,1.15-2.68,1.55-4.19c0.4-1.51,0.59-2.95,0.59-4.32c0-1.27-0.22-2.15-0.67-2.63s-1.05-0.72-1.82-0.72
			c-0.53,0-1.06,0.19-1.6,0.56c-0.54,0.37-1.05,0.88-1.53,1.53c-0.48,0.65-0.93,1.39-1.35,2.23c-0.42,0.84-0.79,1.73-1.1,2.66
			c-0.31,0.94-0.55,1.89-0.72,2.86c-0.17,0.97-0.25,1.9-0.25,2.79c0,1.34,0.22,2.29,0.65,2.84C85.9,189.2,86.45,189.47,87.12,189.47
			z"/>
		<path class="st0" d="M118.26,190.91V168.2h-9.11v-2.48h20.99v2.48h-9.11v22.72H118.26z"/>
		<path class="st0" d="M127.3,190.91l10.44-25.2h3.35l10.37,25.2h-3.02l-3.17-7.92h-11.88l-3.2,7.92H127.3z M134.35,180.62h9.94
			l-4.97-12.35L134.35,180.62z"/>
		<path class="st0" d="M155.27,190.91v-25.2h10.22c1.63,0,3.04,0.26,4.23,0.79c1.19,0.53,2.11,1.28,2.75,2.25
			c0.65,0.97,0.97,2.12,0.97,3.44c0,1.3-0.34,2.42-1.03,3.38c-0.68,0.96-1.63,1.69-2.83,2.2c1.51,0.46,2.71,1.21,3.58,2.27
			c0.88,1.06,1.31,2.32,1.31,3.78c0,1.44-0.35,2.69-1.06,3.76c-0.71,1.07-1.7,1.89-2.99,2.47c-1.28,0.58-2.79,0.86-4.52,0.86H155.27
			z M158.04,176.69h7.31c1.63,0,2.93-0.38,3.91-1.15c0.97-0.77,1.46-1.81,1.46-3.13c0-1.32-0.49-2.36-1.46-3.13
			c-0.97-0.77-2.27-1.15-3.91-1.15h-7.31V176.69z M158.04,188.5h7.67c1.82,0,3.28-0.43,4.36-1.3s1.62-2.02,1.62-3.46
			s-0.54-2.59-1.62-3.46c-1.08-0.86-2.53-1.3-4.36-1.3h-7.67V188.5z"/>
		<path class="st0" d="M179.82,190.91v-25.2h2.77v22.72h15.01v2.48H179.82z"/>
		<path class="st0" d="M202.46,190.91v-25.2h18.04v2.45h-15.26v8.82h9.97v2.41h-9.97v9.07h15.41v2.45H202.46z"/>
	</g>
	<g>
		<path d="M50.55,235.59c-0.49,0.46-1.19,0.83-2.09,1.1c-0.9,0.27-1.84,0.41-2.8,0.41c-1.97,0-3.6-0.64-4.88-1.92
			c-1.28-1.28-1.92-2.93-1.92-4.95c0-1.13,0.24-2.25,0.71-3.36c0.48-1.11,1.22-2.02,2.23-2.75c1.01-0.73,2.3-1.09,3.86-1.09
			c1.15,0,2.13,0.16,2.94,0.48c0.81,0.32,1.46,0.7,1.93,1.13l0.36,2.96l-1.91,0.19l-0.34-1.89c-0.84-0.55-1.85-0.82-3.02-0.82
			c-1.29,0-2.32,0.45-3.1,1.34s-1.17,2.12-1.17,3.67c0,1.62,0.41,2.85,1.24,3.69c0.83,0.83,1.91,1.25,3.25,1.25
			c1.12,0,2.04-0.2,2.75-0.59l0.34-2.04l1.91,0.19L50.55,235.59z"/>
		<path d="M62.12,232.18c0,1.47-0.47,2.66-1.4,3.56c-0.93,0.9-2.14,1.35-3.62,1.35c-1.44,0-2.6-0.43-3.48-1.3s-1.31-2.04-1.31-3.53
			c0-1.37,0.41-2.55,1.24-3.54c0.83-0.99,2.05-1.48,3.67-1.48c1.64,0,2.86,0.49,3.67,1.47S62.12,230.85,62.12,232.18z M59.79,232.12
			c0-1.01-0.24-1.78-0.72-2.31c-0.48-0.53-1.11-0.8-1.88-0.8c-0.8,0-1.42,0.28-1.87,0.85s-0.67,1.33-0.67,2.28
			c0,0.9,0.21,1.65,0.64,2.27c0.43,0.62,1.06,0.92,1.9,0.92c0.81,0,1.45-0.3,1.91-0.89S59.79,233.07,59.79,232.12z"/>
		<path d="M80.73,236.89h-4.16v-1.72h0.52v-3.7c0-0.9-0.16-1.53-0.47-1.9s-0.76-0.56-1.33-0.56c-0.74,0-1.28,0.25-1.63,0.76
			c-0.34,0.5-0.52,1.08-0.54,1.72v3.67h1.41v1.72h-4.16v-1.72h0.5v-3.7c0-0.9-0.16-1.53-0.47-1.9c-0.31-0.37-0.75-0.56-1.31-0.56
			c-0.73,0-1.27,0.25-1.62,0.75c-0.35,0.5-0.53,1.07-0.55,1.71v3.7h1.76v1.72h-5.42v-1.72h1.41v-5.96H63.3v-1.74h3.63v1.55
			c0.29-0.52,0.69-0.94,1.18-1.26c0.49-0.32,1.08-0.48,1.79-0.48c0.7,0,1.33,0.17,1.89,0.51c0.56,0.34,0.95,0.88,1.18,1.61
			c0.28-0.64,0.69-1.16,1.22-1.54c0.53-0.38,1.18-0.58,1.95-0.58c0.85,0,1.6,0.27,2.25,0.82c0.64,0.55,0.97,1.4,0.97,2.56v4.51h1.39
			V236.89z"/>
		<path d="M99.02,236.89h-4.16v-1.72h0.52v-3.7c0-0.9-0.16-1.53-0.47-1.9s-0.76-0.56-1.33-0.56c-0.74,0-1.28,0.25-1.63,0.76
			c-0.34,0.5-0.52,1.08-0.54,1.72v3.67h1.41v1.72h-4.16v-1.72h0.5v-3.7c0-0.9-0.16-1.53-0.47-1.9c-0.31-0.37-0.75-0.56-1.31-0.56
			c-0.73,0-1.27,0.25-1.62,0.75c-0.35,0.5-0.53,1.07-0.55,1.71v3.7h1.76v1.72h-5.42v-1.72h1.41v-5.96h-1.39v-1.74h3.63v1.55
			c0.29-0.52,0.69-0.94,1.18-1.26c0.49-0.32,1.08-0.48,1.79-0.48c0.7,0,1.33,0.17,1.89,0.51c0.56,0.34,0.95,0.88,1.18,1.61
			c0.28-0.64,0.69-1.16,1.22-1.54c0.53-0.38,1.18-0.58,1.95-0.58c0.85,0,1.6,0.27,2.25,0.82c0.64,0.55,0.97,1.4,0.97,2.56v4.51h1.39
			V236.89z"/>
		<path d="M111.03,236.89h-3.72v-1.58c-0.62,1.18-1.65,1.76-3.11,1.76c-0.9,0-1.67-0.27-2.32-0.81c-0.65-0.54-0.98-1.4-0.98-2.57
			v-4.52H99.5v-1.72h3.65v5.42c0,0.9,0.16,1.53,0.48,1.9c0.32,0.37,0.78,0.56,1.36,0.56c0.7,0,1.26-0.24,1.67-0.73
			c0.41-0.49,0.63-1.07,0.64-1.74v-3.67h-1.68v-1.72h3.93v7.71h1.47V236.89z"/>
		<path d="M123.42,236.89h-5.04v-1.72h1.39v-3.7c0-0.9-0.16-1.53-0.48-1.9c-0.32-0.37-0.77-0.56-1.34-0.56
			c-0.71,0-1.28,0.23-1.69,0.69s-0.63,1.03-0.64,1.7v3.76h1.41v1.72h-5.06v-1.72h1.41v-5.96h-1.47v-1.74h3.72v1.53
			c0.66-1.15,1.7-1.72,3.13-1.72c0.9,0,1.67,0.27,2.31,0.82c0.64,0.55,0.97,1.4,0.97,2.56v4.51h1.41V236.89z"/>
		<path d="M129.38,236.89h-5.04v-1.72h1.41v-5.96h-1.49v-1.74h3.72v7.71h1.41V236.89z M125.62,225.51v-2.48h2.29v2.48H125.62z"/>
		<path d="M137.99,234.12c-0.27,1.99-1.37,2.98-3.32,2.98c-1.01,0-1.81-0.27-2.4-0.8s-0.89-1.27-0.89-2.23v-4.96h-1.39v-1.66h1.39
			v-2.92h2.25v2.92h3.51v1.66h-3.51v4.6c0,0.99,0.43,1.49,1.3,1.49c0.24,0,0.5-0.09,0.8-0.26c0.29-0.17,0.5-0.63,0.61-1.35
			L137.99,234.12z"/>
		<path d="M148.64,229.18h-0.99l-3.15,7.71l-1.05,2.71h1.39v1.76h-5.04v-1.76h1.6l0.92-2.62l-3.34-7.79h-1.03v-1.72h4.64v1.72h-1.2
			l2.18,5.1h0.13l1.76-5.1h-1.07v-1.72h4.24V229.18z"/>
		<path d="M163.3,232.88c0,1.36-0.47,2.4-1.42,3.13c-0.95,0.73-2.2,1.09-3.75,1.09c-0.92,0-1.82-0.11-2.68-0.34
			c-0.86-0.22-1.54-0.55-2.05-0.97l0.38-3.13l1.87,0.19l-0.04,1.68c0.46,0.24,0.88,0.39,1.27,0.45c0.38,0.06,0.75,0.09,1.08,0.09
			c0.81,0,1.49-0.13,2.03-0.39s0.81-0.78,0.81-1.56c0-0.85-0.31-1.42-0.92-1.71c-0.62-0.29-1.32-0.51-2.12-0.66
			c-0.64-0.13-1.29-0.29-1.95-0.5c-0.66-0.21-1.2-0.56-1.64-1.05c-0.43-0.49-0.65-1.21-0.65-2.16c0-1.43,0.49-2.45,1.46-3.08
			c0.97-0.62,2.06-0.93,3.27-0.93c0.84,0,1.66,0.13,2.45,0.38s1.41,0.58,1.86,0.99l0.13,2.88l-1.87,0.17l-0.19-1.76
			c-0.39-0.22-0.79-0.38-1.18-0.46s-0.77-0.13-1.13-0.13c-0.66,0-1.2,0.13-1.64,0.4c-0.43,0.27-0.65,0.69-0.65,1.28
			c0,0.69,0.27,1.15,0.81,1.4c0.54,0.25,1.14,0.44,1.82,0.6c0.57,0.13,1.22,0.29,1.95,0.5c0.73,0.21,1.36,0.58,1.9,1.12
			C163.03,230.93,163.3,231.76,163.3,232.88z"/>
		<path d="M175.83,236.89h-3.72v-1.58c-0.62,1.18-1.65,1.76-3.11,1.76c-0.9,0-1.67-0.27-2.32-0.81c-0.65-0.54-0.98-1.4-0.98-2.57
			v-4.52h-1.41v-1.72h3.65v5.42c0,0.9,0.16,1.53,0.48,1.9s0.78,0.56,1.37,0.56c0.7,0,1.26-0.24,1.67-0.73
			c0.41-0.49,0.63-1.07,0.64-1.74v-3.67h-1.68v-1.72h3.93v7.71h1.47V236.89z"/>
		<path d="M187.38,231.93c0,1.34-0.35,2.54-1.06,3.59c-0.71,1.05-1.8,1.58-3.27,1.58c-1.36,0-2.35-0.49-2.96-1.47v3.97h1.87v1.76
			h-5.52v-1.76h1.41v-10.42h-1.47v-1.72h3.72v1.87c0.27-0.56,0.65-1.04,1.17-1.45s1.2-0.61,2.07-0.61c1.2,0,2.18,0.41,2.93,1.23
			C187.01,229.32,187.38,230.46,187.38,231.93z M185.05,232.16c0-1.01-0.23-1.77-0.69-2.3s-1.05-0.79-1.76-0.79
			c-0.76,0-1.35,0.29-1.79,0.86c-0.43,0.57-0.67,1.25-0.69,2.02l-0.02,0.73c0,0.78,0.23,1.41,0.68,1.89
			c0.45,0.48,1.04,0.71,1.75,0.71c0.8,0,1.42-0.28,1.86-0.84C184.83,233.89,185.05,233.13,185.05,232.16z"/>
		<path d="M199.21,231.93c0,1.34-0.35,2.54-1.06,3.59c-0.71,1.05-1.8,1.58-3.27,1.58c-1.36,0-2.35-0.49-2.96-1.47v3.97h1.87v1.76
			h-5.52v-1.76h1.41v-10.42h-1.47v-1.72h3.72v1.87c0.27-0.56,0.65-1.04,1.17-1.45s1.2-0.61,2.07-0.61c1.2,0,2.18,0.41,2.93,1.23
			C198.83,229.32,199.21,230.46,199.21,231.93z M196.88,232.16c0-1.01-0.23-1.77-0.69-2.3s-1.05-0.79-1.76-0.79
			c-0.76,0-1.35,0.29-1.79,0.86c-0.43,0.57-0.67,1.25-0.69,2.02l-0.02,0.73c0,0.78,0.23,1.41,0.68,1.89
			c0.45,0.48,1.04,0.71,1.75,0.71c0.8,0,1.42-0.28,1.86-0.84C196.66,233.89,196.88,233.13,196.88,232.16z"/>
		<path d="M210.15,232.18c0,1.47-0.46,2.66-1.4,3.56c-0.93,0.9-2.14,1.35-3.62,1.35c-1.44,0-2.6-0.43-3.48-1.3s-1.31-2.04-1.31-3.53
			c0-1.37,0.41-2.55,1.24-3.54c0.83-0.99,2.05-1.48,3.67-1.48c1.64,0,2.86,0.49,3.67,1.47C209.74,229.7,210.15,230.85,210.15,232.18
			z M207.82,232.12c0-1.01-0.24-1.78-0.72-2.31c-0.48-0.53-1.11-0.8-1.88-0.8c-0.8,0-1.42,0.28-1.87,0.85s-0.67,1.33-0.67,2.28
			c0,0.9,0.21,1.65,0.64,2.27c0.43,0.62,1.06,0.92,1.9,0.92c0.81,0,1.45-0.3,1.91-0.89S207.82,233.07,207.82,232.12z"/>
		<path d="M217.06,227.31c0.63,0,1.22,0.18,1.76,0.53l0.4,2.94l-1.74,0.21l-0.36-1.62c-0.28-0.14-0.52-0.21-0.71-0.21
			c-0.39,0-0.73,0.16-1.02,0.48c-0.29,0.32-0.43,0.77-0.43,1.34v4.18h1.87v1.72h-5.52v-1.72h1.41v-5.96h-1.47v-1.74h3.55v1.76
			c0.17-0.53,0.44-0.98,0.81-1.35C215.97,227.5,216.46,227.31,217.06,227.31z"/>
		<path d="M228,234.12c-0.27,1.99-1.37,2.98-3.32,2.98c-1.01,0-1.81-0.27-2.4-0.8s-0.89-1.27-0.89-2.23v-4.96H220v-1.66h1.39v-2.92
			h2.25v2.92h3.51v1.66h-3.51v4.6c0,0.99,0.43,1.49,1.3,1.49c0.24,0,0.5-0.09,0.8-0.26c0.29-0.17,0.5-0.63,0.61-1.35L228,234.12z"/>
		<path d="M237.43,234.01c-0.08,0.83-0.49,1.55-1.22,2.16c-0.73,0.62-1.73,0.92-3,0.92c-1.37,0-2.5-0.4-3.38-1.21
			c-0.88-0.8-1.32-1.99-1.32-3.56c0-1.44,0.4-2.65,1.21-3.61s1.93-1.45,3.37-1.45c1.3,0,2.33,0.39,3.1,1.17
			c0.76,0.78,1.15,1.76,1.17,2.95c0,0.39-0.04,0.81-0.13,1.26h-6.36c0.13,1.76,0.97,2.65,2.52,2.65c0.73,0,1.25-0.17,1.56-0.52
			c0.31-0.35,0.52-0.72,0.62-1.11L237.43,234.01z M235.03,231.26c0.06-0.56-0.07-1.09-0.39-1.59c-0.32-0.5-0.84-0.75-1.59-0.75
			c-0.67,0-1.18,0.22-1.53,0.67c-0.35,0.45-0.57,1-0.65,1.66H235.03z"/>
		<path d="M249.48,236.89h-3.63v-1.81c-0.28,0.55-0.68,1.02-1.21,1.42c-0.53,0.4-1.21,0.6-2.07,0.6c-1.23,0-2.21-0.42-2.93-1.26
			c-0.72-0.84-1.08-2-1.08-3.47c0-1.34,0.34-2.53,1.02-3.56c0.68-1.03,1.75-1.54,3.2-1.54c0.74,0,1.37,0.15,1.88,0.45
			c0.51,0.3,0.91,0.7,1.19,1.21v-4.77h-2.04v-1.72h4.28v12.73h1.39V236.89z M245.85,232.35v-0.71c-0.01-0.78-0.25-1.41-0.71-1.87
			s-1.03-0.69-1.7-0.69c-0.76,0-1.37,0.28-1.84,0.85c-0.47,0.57-0.7,1.34-0.7,2.32c0,0.99,0.23,1.75,0.7,2.27
			c0.47,0.52,1.03,0.78,1.69,0.78c0.77,0,1.39-0.31,1.85-0.94S245.83,233.05,245.85,232.35z"/>
		<path d="M104.21,263.89h-5.23v-2h1.39l-0.69-1.87h-5.1l-0.74,1.87h1.53v2H90.2v-2h1.26l4.12-9.66h-2v-2h4.39l4.91,11.65h1.32
			V263.89z M99.04,258.32l-1.78-4.75h-0.13l-1.89,4.75H99.04z"/>
		<path d="M115.34,256.2h-1.36v7.33c0,1.5-0.42,2.71-1.25,3.63c-0.83,0.92-2.08,1.39-3.73,1.39c-0.98,0-1.9-0.21-2.75-0.63
			c-0.85-0.42-1.46-1.14-1.81-2.16l1.74-0.95c0.59,1.29,1.54,1.93,2.86,1.93c0.78,0,1.43-0.28,1.93-0.84
			c0.5-0.56,0.76-1.36,0.76-2.39v-1.41c-0.27,0.5-0.65,0.93-1.14,1.29c-0.5,0.36-1.18,0.54-2.05,0.54c-1.11,0-2.06-0.39-2.87-1.17
			s-1.21-1.91-1.21-3.39c0-1.34,0.36-2.53,1.08-3.56c0.72-1.03,1.77-1.54,3.14-1.54c1.43,0,2.44,0.55,3.04,1.66v-1.47h3.61V256.2z
			 M111.72,259.39v-0.76c0-0.78-0.22-1.41-0.67-1.87c-0.45-0.46-1.01-0.69-1.68-0.69c-0.78,0-1.39,0.28-1.81,0.85
			c-0.42,0.57-0.63,1.33-0.63,2.3c0,0.99,0.21,1.73,0.63,2.19c0.42,0.47,0.95,0.7,1.6,0.7c0.8,0,1.42-0.28,1.88-0.84
			C111.5,260.72,111.72,260.09,111.72,259.39z"/>
		<path d="M121.99,254.31c0.63,0,1.22,0.18,1.76,0.53l0.4,2.94l-1.74,0.21l-0.36-1.62c-0.28-0.14-0.52-0.21-0.71-0.21
			c-0.39,0-0.73,0.16-1.02,0.48c-0.29,0.32-0.43,0.77-0.43,1.34v4.18h1.87v1.72h-5.52v-1.72h1.41v-5.96h-1.47v-1.74h3.55v1.76
			c0.17-0.53,0.44-0.98,0.81-1.35C120.9,254.5,121.39,254.31,121.99,254.31z"/>
		<path d="M130.46,263.89h-5.04v-1.72h1.41v-5.96h-1.49v-1.74h3.72v7.71h1.41V263.89z M126.7,252.51v-2.48h2.29v2.48H126.7z"/>
		<path d="M140.2,260.51c-0.1,0.84-0.47,1.65-1.11,2.43c-0.64,0.78-1.68,1.17-3.11,1.17c-1.34,0-2.44-0.41-3.29-1.22
			c-0.85-0.81-1.27-2-1.27-3.55c0-1.53,0.44-2.75,1.31-3.67c0.87-0.92,2.02-1.39,3.43-1.39c0.56,0,1.12,0.07,1.68,0.21
			c0.56,0.14,1.11,0.37,1.66,0.69l0.38,2.65l-1.81,0.19l-0.31-1.55c-0.52-0.25-1.06-0.38-1.64-0.38c-1.57,0-2.35,1.05-2.35,3.15
			c0,2.04,0.8,3.07,2.42,3.07c1.18,0,1.88-0.71,2.12-2.14L140.2,260.51z"/>
		<path d="M152.44,263.89h-3.72v-1.58c-0.62,1.18-1.65,1.76-3.11,1.76c-0.9,0-1.67-0.27-2.32-0.81c-0.65-0.54-0.98-1.4-0.98-2.57
			v-4.52h-1.41v-1.72h3.65v5.42c0,0.9,0.16,1.53,0.48,1.9c0.32,0.37,0.78,0.56,1.37,0.56c0.7,0,1.26-0.24,1.67-0.73
			c0.41-0.49,0.63-1.07,0.64-1.74v-3.67h-1.68v-1.72h3.93v7.71h1.47V263.89z"/>
		<path d="M158.2,263.89h-5.04v-1.72h1.41v-11h-1.49v-1.72h3.72v12.73h1.41V263.89z"/>
		<path d="M166.8,261.12c-0.27,1.99-1.37,2.98-3.32,2.98c-1.01,0-1.81-0.27-2.4-0.8s-0.89-1.27-0.89-2.23v-4.96h-1.39v-1.66h1.39
			v-2.92h2.25v2.92h3.51v1.66h-3.51v4.6c0,0.99,0.43,1.49,1.3,1.49c0.24,0,0.5-0.09,0.8-0.26c0.29-0.17,0.5-0.63,0.61-1.35
			L166.8,261.12z"/>
		<path d="M178.52,263.89h-3.72v-1.58c-0.62,1.18-1.65,1.76-3.11,1.76c-0.9,0-1.67-0.27-2.32-0.81c-0.65-0.54-0.98-1.4-0.98-2.57
			v-4.52h-1.41v-1.72h3.65v5.42c0,0.9,0.16,1.53,0.48,1.9s0.78,0.56,1.37,0.56c0.7,0,1.26-0.24,1.67-0.73
			c0.41-0.49,0.63-1.07,0.64-1.74v-3.67h-1.68v-1.72h3.93v7.71h1.47V263.89z"/>
		<path d="M185.2,254.31c0.63,0,1.22,0.18,1.76,0.53l0.4,2.94l-1.74,0.21l-0.36-1.62c-0.28-0.14-0.52-0.21-0.71-0.21
			c-0.39,0-0.73,0.16-1.02,0.48c-0.29,0.32-0.43,0.77-0.43,1.34v4.18h1.87v1.72h-5.52v-1.72h1.41v-5.96h-1.47v-1.74h3.55v1.76
			c0.17-0.53,0.44-0.98,0.81-1.35C184.11,254.5,184.6,254.31,185.2,254.31z"/>
		<path d="M197.42,261.01c-0.08,0.83-0.49,1.55-1.22,2.16c-0.73,0.62-1.73,0.92-3,0.92c-1.37,0-2.5-0.4-3.38-1.21
			c-0.88-0.8-1.32-1.99-1.32-3.56c0-1.44,0.4-2.65,1.21-3.61s1.93-1.45,3.37-1.45c1.3,0,2.33,0.39,3.1,1.17
			c0.76,0.78,1.15,1.76,1.17,2.95c0,0.39-0.04,0.81-0.13,1.26h-6.36c0.13,1.76,0.97,2.65,2.52,2.65c0.73,0,1.25-0.17,1.56-0.52
			c0.31-0.35,0.52-0.72,0.62-1.11L197.42,261.01z M195.03,258.26c0.06-0.56-0.07-1.09-0.39-1.59c-0.32-0.5-0.84-0.75-1.59-0.75
			c-0.67,0-1.18,0.22-1.53,0.67c-0.35,0.45-0.57,1-0.65,1.66H195.03z"/>
	</g>
</g>
</svg>
